<?xml version="1.0" encoding="UTF-8"?>
<svg xmlns="http://www.w3.org/2000/svg" version="1.1" viewBox="0 0 250 250">
  <defs>
    <style>
      .cls-1 {
        fill: #474747;
      }
    </style>
  </defs>
  <!-- Generator: Adobe Illustrator 28.7.1, SVG Export Plug-In . SVG Version: 1.2.0 Build 142)  -->
  <g>
    <g id="Layer_1">
      <path class="cls-1" d="M15.86,121.19v20.83c0,2.93,2.35,5.31,5.24,5.31h49.33c-.9,1.36-1.61,2.86-2.1,4.45h-18.31c-2.89,0,13.09,2.05,13.09,4.98,0,2.93-15.98,5.64-13.09,5.64h18.34c.83,2.66,2.27,5.12,4.27,7.14,3.29,3.33,7.74,5.16,12.34,5.16,1.1,0,2.21-.1,3.31-.32,6.25-1.21,11.36-5.91,13.24-11.98h82.79c.83,2.66,2.27,5.12,4.27,7.14,3.29,3.33,7.74,5.16,12.34,5.16,1.1,0,2.21-.1,3.31-.32,6.25-1.21,11.36-5.91,13.24-11.98h10.77c5.4,0,9.79-4.45,9.79-9.92v-33.86s0-.05,0-.08c0-.12,0-.23-.02-.35,0-.06,0-.12-.02-.18-.01-.11-.03-.22-.05-.33-.01-.06-.02-.13-.04-.19-.02-.1-.05-.2-.08-.3-.02-.07-.04-.15-.06-.22-.03-.09-.06-.17-.09-.26-.03-.08-.06-.16-.1-.24-.03-.08-.07-.15-.11-.23-.04-.08-.08-.16-.13-.24-.02-.03-.03-.07-.05-.1l-19.82-33.67c-3.6-6.43-10.22-6.43-12.39-6.43h-36.1c-2.89,0-5.24,2.38-5.24,5.31v34.78H21.1c-2.89,0-5.24,2.38-5.24,5.31ZM227.52,151.77h-10.1c-.83-2.66-2.27-5.12-4.27-7.15-4.07-4.13-9.92-5.94-15.64-4.84-6.25,1.2-11.37,5.91-13.24,11.98h-10.07v-9.76s0-20.83,0-20.83v-34.78h30.86c2.69,0,2.99.54,3.33,1.16l19.14,32.51v31.69ZM194.09,155.66h0c.5-2.69,2.71-4.93,5.37-5.44.47-.09.93-.14,1.39-.14,1.84,0,3.57.71,4.89,2.04,1.64,1.67,2.33,3.99,1.89,6.37-.5,2.69-2.71,4.93-5.37,5.44-2.35.44-4.63-.25-6.28-1.92-1.64-1.67-2.33-3.99-1.89-6.36ZM78.15,155.66h0c.5-2.69,2.71-4.93,5.37-5.44.47-.09.93-.14,1.39-.14,1.84,0,3.57.71,4.89,2.04,1.64,1.67,2.33,3.99,1.89,6.37-.5,2.69-2.71,4.93-5.37,5.44-2.36.44-4.63-.25-6.28-1.92-1.64-1.67-2.33-3.99-1.89-6.36ZM99.38,147.32h64.33v4.45h-62.23c-.49-1.57-1.19-3.07-2.1-4.45ZM26.34,126.5h137.37v10.21H26.34v-10.21Z"/>
      <path class="cls-1" d="M211.52,127.62h-25.65c-2.89,0-5.24-2.38-5.24-5.31v-23.49c0-2.93,2.35-5.31,5.24-5.31,2.89,0,5.24,2.38,5.24,5.31v18.18s8.22,0,14.72,0c2.02,0,4.14.51,5.26,3.87"/>
    </g>
  </g>
</svg>